<svg width="41" height="40" viewBox="0 0 41 40" fill="none" xmlns="http://www.w3.org/2000/svg">
<g filter="url(#filter0_d_211_4910)">
<path d="M17.1101 21.2359C17.6581 19.876 18.7742 18.8313 20.1672 18.8313C21.5602 18.8313 22.6763 19.876 23.2243 21.2359C23.3989 21.6692 23.3634 22.1271 23.1925 22.4857C23.0275 22.8319 22.6834 23.1719 22.1981 23.1719H18.1363C17.651 23.1719 17.3069 22.8319 17.1419 22.4857C16.971 22.1271 16.9355 21.6692 17.1101 21.2359Z" fill="#BEFF25"/>
<path d="M26.1747 12.0223C26.0048 11.9986 25.7316 11.9862 25.3105 11.9862H24.5077C24.1389 11.9862 23.8399 11.6872 23.8399 11.3184C23.8399 10.9496 24.1389 10.6506 24.5077 10.6506H25.3518C25.717 10.6506 26.0576 10.6505 26.3308 10.6885C26.6288 10.7299 26.9775 10.832 27.2364 11.1439C27.4995 11.4608 27.5299 11.8248 27.5061 12.1269C27.4848 12.3977 27.4003 12.7648 27.3216 13.1068L27.0607 14.2414C26.6034 16.23 24.937 17.6893 22.9372 17.9889C22.5724 18.0435 22.2325 17.7922 22.1778 17.4274C22.1232 17.0627 22.3746 16.7227 22.7393 16.6681C24.2265 16.4452 25.4315 15.3666 25.7591 13.9421L26.02 12.8075C26.1118 12.4082 26.1621 12.1818 26.1747 12.0223Z" fill="#BEFF25"/>
<path d="M14.1593 12.0223C14.3291 11.9986 14.6023 11.9862 15.0234 11.9862H15.8262C16.195 11.9862 16.494 11.6872 16.494 11.3184C16.494 10.9496 16.195 10.6506 15.8262 10.6506H14.9821C14.6169 10.6506 14.2763 10.6505 14.0031 10.6885C13.7051 10.7299 13.3564 10.832 13.0975 11.1439C12.8344 11.4608 12.804 11.8248 12.8278 12.1269C12.8491 12.3977 12.924 12.7231 13.0027 13.0651L13.2732 14.2414C13.7305 16.23 15.3969 17.6893 17.3967 17.9889C17.7614 18.0435 18.1014 17.7922 18.1561 17.4274C18.2107 17.0627 17.9593 16.7227 17.5946 16.6681C16.1074 16.4452 14.9024 15.3666 14.5748 13.9421L14.3139 12.8075C14.2221 12.4082 14.1718 12.1818 14.1593 12.0223Z" fill="#BEFF25"/>
<path d="M18.248 8.81455H18.2881H22.0856C22.6553 8.81451 23.1426 8.81449 23.5315 8.87771C23.9553 8.94657 24.3287 9.09964 24.6178 9.45006C24.8969 9.78829 24.9927 10.1678 25.0064 10.5887C25.0192 10.977 24.9623 11.4489 24.8954 12.0032C24.6348 14.1663 24.0637 16.1103 23.2811 17.4925C22.5125 18.8497 21.4527 19.833 20.1669 19.833C18.881 19.833 17.8211 18.8497 17.0526 17.4925C16.2699 16.1103 15.6988 14.1663 15.4382 12.0032C15.3714 11.4489 15.3145 10.977 15.3272 10.5887C15.341 10.1678 15.4368 9.78829 15.7158 9.45006C16.0049 9.09964 16.3784 8.94657 16.8021 8.87771C17.1911 8.81449 17.6783 8.81451 18.248 8.81455Z" fill="#BEFF25"/>
</g>
<defs>
<filter id="filter0_d_211_4910" x="-0.667816" y="-0.835088" width="41.6697" height="41.6697" filterUnits="userSpaceOnUse" color-interpolation-filters="sRGB">
<feFlood flood-opacity="0" result="BackgroundImageFix"/>
<feColorMatrix in="SourceAlpha" type="matrix" values="0 0 0 0 0 0 0 0 0 0 0 0 0 0 0 0 0 0 127 0" result="hardAlpha"/>
<feOffset dy="4"/>
<feGaussianBlur stdDeviation="6.4"/>
<feComposite in2="hardAlpha" operator="out"/>
<feColorMatrix type="matrix" values="0 0 0 0 0.745098 0 0 0 0 1 0 0 0 0 0.145098 0 0 0 0.33 0"/>
<feBlend mode="normal" in2="BackgroundImageFix" result="effect1_dropShadow_211_4910"/>
<feBlend mode="normal" in="SourceGraphic" in2="effect1_dropShadow_211_4910" result="shape"/>
</filter>
</defs>
</svg>
