<svg width="12" height="12" viewBox="0 0 12 12" fill="none" xmlns="http://www.w3.org/2000/svg">
<path opacity="0.4" d="M1.49269 5.10239C1.62749 4.93779 1.69489 4.85548 1.76038 4.87893C1.82587 4.90239 1.82567 5.01659 1.82527 5.24494C1.82527 5.24784 1.82527 5.25074 1.82527 5.25364C1.82527 7.97149 4.02852 10.1747 6.74635 10.1747C6.74925 10.1747 6.75215 10.1747 6.75505 10.1747C6.9834 10.1743 7.0976 10.1741 7.12105 10.2396C7.1445 10.3051 7.0622 10.3725 6.8976 10.5073C6.23535 11.0496 5.3886 11.375 4.46586 11.375C2.34461 11.375 0.625 9.65539 0.625 7.53414C0.625 6.61139 0.950395 5.76464 1.49269 5.10239Z" fill="#BEFF25"/>
<path d="M2.625 4.99999C2.625 2.58375 4.58376 0.625 7 0.625C9.41625 0.625 11.375 2.58375 11.375 4.99999C11.375 7.41623 9.41625 9.37498 7 9.37498C4.58376 9.37498 2.625 7.41623 2.625 4.99999Z" fill="#BEFF25"/>
</svg>
