<svg width="263" height="36" viewBox="0 0 263 36" fill="none" xmlns="http://www.w3.org/2000/svg">
<rect width="263" height="36" rx="8" fill="#0D1216"/>
<rect x="2" y="2" width="85" height="32" rx="6" fill="url(#paint0_linear_214_5963)"/>
<rect x="2.5" y="2.5" width="84" height="31" rx="5.5" stroke="url(#paint1_linear_214_5963)" stroke-opacity="0.2"/>
<path d="M36.8125 10.6875H41.625L52.1875 25.3125H47.375L36.8125 10.6875Z" fill="white"/>
<path d="M52.1875 10.6875L38.8411 25.3125H36.8125L50.1589 10.6875H52.1875Z" fill="white"/>
<rect x="89" y="2" width="85" height="32" rx="6" fill="url(#paint2_linear_214_5963)"/>
<rect x="89.5" y="2.5" width="84" height="31" rx="5.5" stroke="url(#paint3_linear_214_5963)" stroke-opacity="0.2"/>
<path d="M123.438 18C123.438 15.8254 125.2 14.0625 127.375 14.0625C129.55 14.0625 131.312 15.8254 131.312 18C131.312 20.1746 129.55 21.9375 127.375 21.9375C125.2 21.9375 123.438 20.1746 123.438 18Z" fill="white"/>
<path d="M132.307 15.3403C132.691 14.6503 133.31 14.0625 134.125 14.0625C134.94 14.0625 135.559 14.6503 135.943 15.3403C136.336 16.0494 136.562 16.9908 136.562 18C136.562 19.0092 136.336 19.9506 135.943 20.6596C135.559 21.3496 134.94 21.9375 134.125 21.9375C133.31 21.9375 132.691 21.3496 132.307 20.6596C131.914 19.9506 131.688 19.0092 131.688 18C131.688 16.9908 131.914 16.0494 132.307 15.3403Z" fill="white"/>
<path d="M137.718 14.2798C137.835 14.1723 138.015 14.0625 138.25 14.0625C138.485 14.0625 138.665 14.1723 138.782 14.2798C138.896 14.3845 138.979 14.512 139.04 14.6286C139.163 14.863 139.257 15.1653 139.329 15.4915C139.476 16.153 139.562 17.0396 139.562 18C139.562 18.9604 139.476 19.847 139.329 20.5085C139.257 20.8347 139.163 21.1369 139.04 21.3714C138.979 21.488 138.896 21.6155 138.782 21.7202C138.665 21.8278 138.485 21.9375 138.25 21.9375C138.015 21.9375 137.835 21.8278 137.718 21.7202C137.604 21.6155 137.521 21.488 137.46 21.3714C137.337 21.1369 137.243 20.8347 137.171 20.5085C137.024 19.847 136.938 18.9604 136.938 18C136.938 17.0396 137.024 16.153 137.171 15.4915C137.243 15.1653 137.337 14.863 137.46 14.6286C137.521 14.512 137.604 14.3845 137.718 14.2798Z" fill="white"/>
<rect x="176" y="2" width="85" height="32" rx="6" fill="url(#paint4_linear_214_5963)"/>
<rect x="176.5" y="2.5" width="84" height="31" rx="5.5" stroke="url(#paint5_linear_214_5963)" stroke-opacity="0.2"/>
<path fill-rule="evenodd" clip-rule="evenodd" d="M216.701 13.0851C216.701 13.0851 217.536 12.9105 218.5 12.9105C219.464 12.9105 220.298 13.0851 220.298 13.0851L220.632 12.3967C220.702 12.2513 220.858 12.1665 221.016 12.192C222.625 12.4516 224.125 13.3125 224.125 13.3125C224.125 13.3125 225.999 15.1875 225.999 21.8005C226 21.9196 225.945 22.0351 225.849 22.1044C224.618 22.9929 223.124 23.5765 222.521 23.7918C222.362 23.8489 222.187 23.7845 222.096 23.6404L221.674 22.9726C221.558 22.7898 221.618 22.5466 221.805 22.4398L222.687 21.9362L222.33 21.6548C222.33 21.6548 220.904 22.5185 218.5 22.5185C216.096 22.5185 214.67 21.6548 214.67 21.6548L214.313 21.9362L215.195 22.4398C215.382 22.5466 215.442 22.7898 215.326 22.9726L214.904 23.6404C214.813 23.7845 214.638 23.8489 214.478 23.7918C213.876 23.5765 212.381 22.9929 211.151 22.1044C211.055 22.0351 211 21.9196 211 21.8005C211 15.1875 212.875 13.3125 212.875 13.3125C212.875 13.3125 214.375 12.4514 215.984 12.192C216.142 12.1665 216.297 12.2513 216.368 12.3967L216.701 13.0851ZM222.438 18.5625C222.438 19.3909 221.85 20.0625 221.125 20.0625C220.401 20.0625 219.813 19.3909 219.813 18.5625C219.813 17.734 220.401 17.0625 221.125 17.0625C221.85 17.0625 222.438 17.734 222.438 18.5625ZM215.875 20.0625C216.6 20.0625 217.188 19.3909 217.188 18.5625C217.188 17.734 216.6 17.0625 215.875 17.0625C215.151 17.0625 214.563 17.734 214.563 18.5625C214.563 19.3909 215.151 20.0625 215.875 20.0625Z" fill="white"/>
<defs>
<linearGradient id="paint0_linear_214_5963" x1="44.5" y1="2" x2="44.5" y2="34" gradientUnits="userSpaceOnUse">
<stop stop-color="#13191F"/>
<stop offset="1" stop-color="#1F262E"/>
</linearGradient>
<linearGradient id="paint1_linear_214_5963" x1="44.5" y1="2" x2="44.5" y2="34" gradientUnits="userSpaceOnUse">
<stop stop-color="#465463"/>
<stop offset="1" stop-color="#98AFC6"/>
</linearGradient>
<linearGradient id="paint2_linear_214_5963" x1="131.5" y1="2" x2="131.5" y2="34" gradientUnits="userSpaceOnUse">
<stop stop-color="#13191F"/>
<stop offset="1" stop-color="#1F262E"/>
</linearGradient>
<linearGradient id="paint3_linear_214_5963" x1="131.5" y1="2" x2="131.5" y2="34" gradientUnits="userSpaceOnUse">
<stop stop-color="#465463"/>
<stop offset="1" stop-color="#98AFC6"/>
</linearGradient>
<linearGradient id="paint4_linear_214_5963" x1="218.5" y1="2" x2="218.5" y2="34" gradientUnits="userSpaceOnUse">
<stop stop-color="#13191F"/>
<stop offset="1" stop-color="#1F262E"/>
</linearGradient>
<linearGradient id="paint5_linear_214_5963" x1="218.5" y1="2" x2="218.5" y2="34" gradientUnits="userSpaceOnUse">
<stop stop-color="#465463"/>
<stop offset="1" stop-color="#98AFC6"/>
</linearGradient>
</defs>
</svg>
